<svg width="610" height="127" viewBox="0 0 610 127" fill="none" xmlns="http://www.w3.org/2000/svg">
<path fill-rule="evenodd" clip-rule="evenodd" d="M513.5 98.3999L512.1 97.1999C508.7 94.2999 508.1 88.9999 511.2 85.5999L547.6 43.9999C550.5 40.5999 555.8 39.9999 559.2 43.0999L560.6 44.2999C564 47.1999 564.6 52.4999 561.5 55.8999L525.1 97.4999C522.2 100.9 517.1 101.3 513.5 98.3999Z" fill="url(#paint0_linear)"/>
<path opacity="0.4" fill-rule="evenodd" clip-rule="evenodd" d="M542.7 51.1999L542 50.3999L536.4 56.7999L537 57.4999C546.6 67.0999 542.5 76.7999 540.3 80.1999L541.1 79.2999C542.4 77.7999 544.4 75.4999 546.5 72.9999C548.7 69.1999 551.8 60.1999 542.7 51.1999Z" fill="url(#paint1_linear)"/>
<path opacity="0.4" fill-rule="evenodd" clip-rule="evenodd" d="M554.7 63.6999L556.2 61.9999C556.3 61.7999 556.5 61.5999 556.6 61.3999C555 63.1999 553.3 65.0999 551.7 66.9999C552.9 65.6999 553.9 64.5999 554.7 63.6999Z" fill="url(#paint2_radial)"/>
<path fill-rule="evenodd" clip-rule="evenodd" d="M561.7 45.3001L525.3 3.70005C522.4 0.300055 517.1 -0.299945 513.7 2.80005L512.3 4.00005C508.9 6.90005 508.3 12.2001 511.4 15.6001L542.1 50.4001L542.8 51.2001C551.9 60.3001 548.8 69.3 546.5 73.1001C548.3 71.0001 550.1 68.9001 551.8 67.0001C553.4 65.1001 555.1 63.2001 556.7 61.4001C558.3 59.6001 559.8 57.9001 560.8 56.8001C564.3 53.4001 564.8 48.7001 561.7 45.3001Z" fill="url(#paint3_linear)"/>
<path fill-rule="evenodd" clip-rule="evenodd" d="M559.7 98.3999L558.3 97.1999C554.9 94.2999 554.3 88.9999 557.4 85.5999L593.8 43.9999C596.7 40.5999 602 39.9999 605.4 43.0999L606.8 44.2999C610.2 47.1999 610.8 52.4999 607.7 55.8999L571.3 97.4999C568.4 100.9 563.3 101.3 559.7 98.3999Z" fill="url(#paint4_linear)"/>
<path opacity="0.4" fill-rule="evenodd" clip-rule="evenodd" d="M589.3 50.8L588.6 50L583 56.4L583.6 57.1C593.2 66.7 589.1 76.4 586.9 79.8L587.7 78.9C589 77.4 591 75.1 593.1 72.6C595.3 68.8 598.4 59.8 589.3 50.8Z" fill="url(#paint5_linear)"/>
<path opacity="0.4" fill-rule="evenodd" clip-rule="evenodd" d="M600.8 63.6999L602.3 61.9999C602.4 61.7999 602.6 61.5999 602.7 61.3999C601.1 63.1999 599.4 65.0999 597.8 66.9999C599 65.6999 600.1 64.5999 600.8 63.6999Z" fill="url(#paint6_radial)"/>
<path fill-rule="evenodd" clip-rule="evenodd" d="M607.8 45.3001L571.4 3.70005C568.5 0.300055 563.2 -0.299945 559.8 2.80005L558.4 4.00005C555 6.90005 554.4 12.2001 557.5 15.6001L588.2 50.4001L588.9 51.2001C598 60.3001 594.9 69.3 592.6 73.1001C594.4 71.0001 596.2 68.9001 597.9 67.0001C599.5 65.1001 601.2 63.2001 602.8 61.4001C604.4 59.6001 605.9 57.9001 606.9 56.8001C610.4 53.4001 610.9 48.7001 607.8 45.3001Z" fill="url(#paint7_linear)"/>
<path fill-rule="evenodd" clip-rule="evenodd" d="M2.3001 98.0001C0.900098 96.6001 0.100098 94.5001 0.100098 91.9001V9.6001C0.100098 6.9001 0.900098 4.8001 2.6001 3.1001C4.3001 1.4001 6.4001 0.600098 9.1001 0.600098C11.8001 0.600098 14.2001 1.4001 15.8001 3.1001C17.5001 4.8001 18.3001 6.9001 18.3001 9.6001V85.5001H57.6001C63.2001 85.5001 66.1001 88.0001 66.1001 92.9001C66.1001 97.8001 63.2001 100.3 57.6001 100.3H8.6001C5.9001 100.3 3.8001 99.5001 2.3001 98.0001Z" fill="white"/>
<path fill-rule="evenodd" clip-rule="evenodd" d="M80.3003 98.6C78.6003 96.9 77.8003 94.7 77.8003 91.9V9.5C77.8003 6.8 78.6003 4.7 80.3003 3C82.0003 1.3 84.1003 0.5 86.8003 0.5C89.5003 0.5 91.9003 1.3 93.5003 3C95.2003 4.7 96.0003 6.8 96.0003 9.5V91.9C96.0003 94.6 95.2003 96.9 93.5003 98.6C91.8003 100.3 89.6003 101.1 86.8003 101.1C84.2003 101.1 82.0003 100.3 80.3003 98.6Z" fill="white"/>
<path d="M198.4 114C199.4 115.7 200 117.3 200 119C200 121.1 199.2 122.9 197.5 124.2C195.8 125.5 193.8 126.3 191.6 126.3C189.9 126.3 188.3 125.9 186.8 125.1C185.4 124.3 184.1 123.1 183.1 121.6L174.9 108C173.6 105.8 171.9 104.2 169.8 103.2C167.7 102.2 165 101.6 161.6 101.6C151.9 101.6 143.6 99.4999 136.5 95.4999C129.4 91.2999 124 85.3999 120.2 77.8999C116.4 70.1999 114.5 61.1999 114.5 50.9999C114.5 40.6999 116.5 31.7999 120.2 24.0999C124 16.4999 129.5 10.6999 136.5 6.4999C143.6 2.2999 151.9 0.399902 161.6 0.399902C171.1 0.399902 179.5 2.4999 186.5 6.4999C193.6 10.6999 199 16.5999 202.8 24.0999C206.6 31.6999 208.5 40.6999 208.5 50.9999C208.5 62.0999 206.3 71.7999 201.8 79.6999C197.4 87.6999 191 93.4999 182.7 97.1999C187 98.5999 190.5 101.8 193.4 106.5L198.4 114ZM182.7 77.6999C187.8 71.3999 190.4 62.3999 190.4 50.7999C190.4 38.9999 187.8 30.1999 182.7 23.8999C177.6 17.5999 170.6 14.5999 161.4 14.5999C152.2 14.5999 145.1 17.6999 140 23.8999C134.9 30.1999 132.3 38.9999 132.3 50.7999C132.3 62.5999 134.9 71.3999 140 77.6999C145.1 83.9999 152.3 87.0999 161.4 87.0999C170.5 87.0999 177.6 83.9999 182.7 77.6999Z" fill="white"/>
<path d="M230.5 98.5998C228.8 96.8998 228 94.6998 228 91.8998V9.7998C228 7.0998 228.8 4.9998 230.4 3.4998C232 2.0998 234.1 1.2998 236.8 1.2998H271.3C281.9 1.2998 290.1 3.8998 296 9.2998C301.9 14.4998 304.9 21.9998 304.9 31.4998C304.9 40.9998 301.9 48.4998 296 53.7998C290.1 59.1998 281.9 61.7998 271.3 61.7998H246.2V91.9998C246.2 94.8998 245.4 97.0998 243.7 98.6998C242 100.4 239.8 101.2 237 101.2C234.3 101.1 232 100.3 230.5 98.5998ZM269 47.9998C281.4 47.9998 287.7 42.4998 287.7 31.6998C287.7 20.8998 281.4 15.3998 269 15.3998H246.2V47.8998L269 47.9998Z" fill="white"/>
<path d="M400.6 93.0999C400.6 95.1999 399.7 96.9999 398 98.5999C396.3 99.9999 394.3 100.8 392 100.8C390.6 100.8 389.1 100.4 387.8 99.5999C386.5 98.7999 385.4 97.4999 384.7 95.8999L376.2 77.0999H327L318.5 95.8999C317.7 97.5999 316.7 98.7999 315.4 99.5999C314.1 100.4 312.7 100.8 311.1 100.8C309 100.8 306.9 99.9999 305.2 98.5999C303.4 97.1999 302.6 95.2999 302.6 93.0999C302.6 91.8999 302.9 90.5999 303.4 89.3999L342.2 6.0999C343 4.2999 344.3 2.7999 346.1 1.7999C347.8 0.799902 349.6 0.399902 351.6 0.399902C353.6 0.399902 355.4 0.899902 357.1 1.7999C358.8 2.7999 360.1 4.1999 361 6.0999L399.9 89.3999C400.3 90.6999 400.6 91.7999 400.6 93.0999ZM333.1 63.0999H370.2L351.6 21.4999L333.1 63.0999Z" fill="white"/>
<path fill-rule="evenodd" clip-rule="evenodd" d="M470.6 0.6C472.7 0.6 474.6 1.4 476.3 3.1C478 4.8 478.8 6.6 478.8 9C478.8 10.8 478.1 12.7 476.7 14.4L444.8 53.3V92.2C444.8 95.1 444 97.3 442.3 99C440.6 100.7 438.5 101.4 435.9 101.4C433.2 101.4 430.9 100.6 429.2 99C427.5 97.4 426.7 95.2 426.7 92.2V53.3L395 14.3C393.6 12.6 392.9 10.8 392.9 8.9C392.9 6.7 393.7 4.7 395.4 3C397.1 1.3 399.1 0.5 401.1 0.5C403.5 0.5 405.4 1.5 407.1 3.6L435.8 39.2L464.4 3.6C466.1 1.6 468.2 0.6 470.6 0.6Z" fill="white"/>
<defs>
<linearGradient id="paint0_linear" x1="515.825" y1="84.7952" x2="558.766" y2="60.0346" gradientUnits="userSpaceOnUse">
<stop stop-color="#1FADC3"/>
<stop offset="0.7072" stop-color="#36B98F"/>
</linearGradient>
<linearGradient id="paint1_linear" x1="542.528" y1="61.937" x2="546.944" y2="58.2467" gradientUnits="userSpaceOnUse">
<stop stop-color="#123F06" stop-opacity="0"/>
<stop offset="1" stop-color="#123F06"/>
</linearGradient>
<radialGradient id="paint2_radial" cx="0" cy="0" r="1" gradientUnits="userSpaceOnUse" gradientTransform="translate(534.64 68.8982) scale(24.3819)">
<stop offset="0.4185" stop-color="#123F06" stop-opacity="0"/>
<stop offset="1" stop-color="#123F06"/>
</radialGradient>
<linearGradient id="paint3_linear" x1="517.605" y1="18.5726" x2="556.303" y2="42.2248" gradientUnits="userSpaceOnUse">
<stop stop-color="#9FDB57"/>
<stop offset="1" stop-color="#71CA5E"/>
</linearGradient>
<linearGradient id="paint4_linear" x1="561.986" y1="84.8248" x2="604.926" y2="60.0643" gradientUnits="userSpaceOnUse">
<stop stop-color="#1FADC3"/>
<stop offset="0.7072" stop-color="#36B98F"/>
</linearGradient>
<linearGradient id="paint5_linear" x1="589.128" y1="61.5425" x2="593.544" y2="57.8522" gradientUnits="userSpaceOnUse">
<stop stop-color="#123F06" stop-opacity="0"/>
<stop offset="1" stop-color="#123F06"/>
</linearGradient>
<radialGradient id="paint6_radial" cx="0" cy="0" r="1" gradientUnits="userSpaceOnUse" gradientTransform="translate(580.784 68.8982) scale(24.3819)">
<stop offset="0.4185" stop-color="#123F06" stop-opacity="0"/>
<stop offset="1" stop-color="#123F06"/>
</radialGradient>
<linearGradient id="paint7_linear" x1="563.725" y1="18.587" x2="602.425" y2="42.2454" gradientUnits="userSpaceOnUse">
<stop stop-color="#9FDB57"/>
<stop offset="1" stop-color="#71CA5E"/>
</linearGradient>
</defs>
</svg>
